<svg xmlns="http://www.w3.org/2000/svg" viewBox="0 0 512 512" role="img" aria-labelledby="title description">
  <title id="title">궁금해하는 시바견</title>
  <desc id="description">한쪽 눈썹을 올리고 턱을 괸 채 생각하는 시바견 얼굴</desc>

  <defs>
    <linearGradient id="fur" x1="128" y1="92" x2="376" y2="424" gradientUnits="userSpaceOnUse">
      <stop stop-color="#ffbd52"/>
      <stop offset="0.55" stop-color="#ed892f"/>
      <stop offset="1" stop-color="#c75b25"/>
    </linearGradient>
    <linearGradient id="cream" x1="200" y1="230" x2="298" y2="410" gradientUnits="userSpaceOnUse">
      <stop stop-color="#fff7dc"/>
      <stop offset="1" stop-color="#efcfa0"/>
    </linearGradient>
    <linearGradient id="ear" x1="0" y1="0" x2="1" y2="1">
      <stop stop-color="#9e452b"/>
      <stop offset="1" stop-color="#e78669"/>
    </linearGradient>
    <linearGradient id="question" x1="247" y1="30" x2="305" y2="156" gradientUnits="userSpaceOnUse">
      <stop stop-color="#b69cff"/>
      <stop offset="1" stop-color="#7551e8"/>
    </linearGradient>
    <filter id="soft-shadow" x="-30%" y="-30%" width="160%" height="170%">
      <feDropShadow dx="0" dy="12" stdDeviation="10" flood-color="#2e1537" flood-opacity="0.3"/>
    </filter>
  </defs>

  <g filter="url(#soft-shadow)">
    <path fill="url(#fur)" stroke="#7f351f" stroke-width="9" stroke-linejoin="round" d="M121 210 92 77c-3-15 13-26 26-18l102 65c23-7 49-7 72 0l102-65c13-8 29 3 26 18l-29 133c24 36 36 78 30 119-10 75-77 125-165 125S101 404 91 329c-6-41 6-83 30-119Z"/>

    <path fill="url(#ear)" d="m119 93 73 47-60 45Z"/>
    <path fill="url(#ear)" d="m393 93-73 47 60 45Z"/>
    <path fill="#ffd9a5" opacity="0.7" d="m126 107 45 30-36 27Z"/>
    <path fill="#ffd9a5" opacity="0.7" d="m386 107-45 30 36 27Z"/>

    <path fill="url(#cream)" d="M113 287c25-32 64-50 105-36 13 5 25 13 38 23 13-10 25-18 38-23 41-14 80 4 105 36 23 29 9 91-28 123-31 28-70 44-115 44s-84-16-115-44c-37-32-51-94-28-123Z"/>

    <path fill="none" stroke="#552b25" stroke-linecap="round" stroke-width="13" d="M149 226c19-17 43-19 63-5"/>
    <path fill="none" stroke="#552b25" stroke-linecap="round" stroke-width="13" d="M298 215c22-16 48-12 65 8"/>

    <ellipse cx="183" cy="260" rx="31" ry="35" fill="#fffaf0"/>
    <ellipse cx="329" cy="260" rx="31" ry="35" fill="#fffaf0"/>
    <ellipse cx="188" cy="267" rx="16" ry="21" fill="#35231f"/>
    <ellipse cx="321" cy="267" rx="16" ry="21" fill="#35231f"/>
    <circle cx="194" cy="259" r="6" fill="#fff"/>
    <circle cx="327" cy="259" r="6" fill="#fff"/>

    <path fill="#32201f" stroke="#1f1414" stroke-width="5" d="M224 311c0-16 14-25 32-25s32 9 32 25c0 14-18 28-32 28s-32-14-32-28Z"/>
    <ellipse cx="246" cy="304" rx="8" ry="5" fill="#80615d" opacity="0.75"/>
    <path fill="none" stroke="#5d3328" stroke-linecap="round" stroke-width="7" d="M256 337c-1 16-15 24-29 21m29-21c1 16 15 24 29 21"/>

    <g transform="rotate(-12 345 389)">
      <path fill="#fff2cd" stroke="#9a5b35" stroke-width="8" stroke-linejoin="round" d="M312 449c-16-28-15-72 7-92 17-15 31-7 34 10 5-20 24-22 32-8 4 7 2 18 0 26 8-11 23-8 28 3 8 18-8 47-31 65Z"/>
      <path fill="none" stroke="#d89a62" stroke-linecap="round" stroke-width="6" d="M352 370c-2 15 0 28 6 39m26-45c-5 13-6 25-3 36"/>
    </g>
  </g>

  <g aria-hidden="true">
    <path fill="none" stroke="url(#question)" stroke-linecap="round" stroke-width="22" d="M234 61c8-22 29-34 52-29 24 5 38 24 34 45-3 17-15 25-31 34-15 8-23 18-23 33"/>
    <circle cx="265" cy="176" r="12" fill="#8f70f2"/>
    <path fill="none" stroke="#ded5ff" stroke-linecap="round" stroke-width="5" d="M251 51c10-8 24-9 35-5" opacity="0.75"/>
  </g>
</svg>
